<svg class="ca-logo" xmlns="http://www.w3.org/2000/svg" xmlns:xlink="http://www.w3.org/1999/xlink" width="150" height="150"  zoomAndPan="magnify" viewBox="0 0 375 374.999991" preserveAspectRatio="xMidYMid meet" version="1.0">
  <defs>
    <g/>
    <clipPath id="bb1827db08">
      <path d="M 57.84375 57.84375 L 317.15625 57.84375 L 317.15625 317.15625 L 57.84375 317.15625 Z M 57.84375 57.84375 " clip-rule="nonzero"/>
    </clipPath>
    <clipPath id="e3b09990f2">
      <path d="M 187.5 57.84375 C 115.890625 57.84375 57.84375 115.890625 57.84375 187.5 C 57.84375 259.105469 115.890625 317.15625 187.5 317.15625 C 259.105469 317.15625 317.15625 259.105469 317.15625 187.5 C 317.15625 115.890625 259.105469 57.84375 187.5 57.84375 Z M 187.5 57.84375 " clip-rule="nonzero"/>
    </clipPath>
    <clipPath id="e4b542cbba">
      <path d="M 100.5 100.5 L 274.488281 100.5 L 274.488281 274.488281 L 100.5 274.488281 Z M 100.5 100.5 " clip-rule="nonzero"/>
    </clipPath>
    <clipPath id="138e29d78c">
      <path d="M 187.496094 100.5 C 139.449219 100.5 100.5 139.449219 100.5 187.496094 C 100.5 235.542969 139.449219 274.488281 187.496094 274.488281 C 235.542969 274.488281 274.488281 235.542969 274.488281 187.496094 C 274.488281 139.449219 235.542969 100.5 187.496094 100.5 Z M 187.496094 100.5 " clip-rule="nonzero"/>
    </clipPath>
  </defs>
  <g clip-path="url(#bb1827db08)">
    <g clip-path="url(#e3b09990f2)">
      <path stroke-linecap="butt" transform="matrix(0.75, 0, 0, 0.75, 57.841983, 57.841979)" fill="none" stroke-linejoin="miter" d="M 172.877367 0.00236186 C 77.398194 0.00236186 0.00235586 77.3982 0.00235586 172.877373 C 0.00235586 268.351338 77.398194 345.752385 172.877367 345.752385 C 268.351332 345.752385 345.752379 268.351338 345.752379 172.877373 C 345.752379 77.3982 268.351332 0.00236186 172.877367 0.00236186 Z M 172.877367 0.00236186 " stroke="#000000" stroke-width="4" stroke-opacity="1" stroke-miterlimit="4"/>
    </g>
  </g>
  <g clip-path="url(#e4b542cbba)">
    <g clip-path="url(#138e29d78c)">
      <path stroke-linecap="butt" transform="matrix(0.75, 0, 0, 0.75, 100.50174, 100.501736)" fill="none" stroke-linejoin="miter" d="M 115.992486 -0.0023144 C 51.929978 -0.0023144 -0.0023204 51.929984 -0.0023204 115.992492 C -0.0023204 180.055001 51.929978 231.982091 115.992486 231.982091 C 180.054995 231.982091 231.982085 180.055001 231.982085 115.992492 C 231.982085 51.929984 180.054995 -0.0023144 115.992486 -0.0023144 Z M 115.992486 -0.0023144 " stroke="#000000" stroke-width="6" stroke-opacity="1" stroke-miterlimit="4"/>
    </g>
  </g>
  <g fill="#fff" fill-opacity="1">
    <g transform="translate(140.390885, 181.696456)">
      <g>
        <path d="M 21.9375 0.5625 C 8.90625 -0.09375 2.125 -6.976562 1.59375 -20.09375 C 2.289062 -33.46875 9.28125 -40.429688 22.5625 -40.984375 C 26.164062 -40.984375 30.082031 -40.25 34.3125 -38.78125 C 34.3125 -35.882812 34.789062 -32.957031 35.75 -30 L 33.6875 -29.59375 C 31.53125 -34.925781 27.460938 -37.59375 21.484375 -37.59375 C 12.515625 -37.195312 7.867188 -31.742188 7.546875 -21.234375 C 7.992188 -9.710938 13.078125 -3.515625 22.796875 -2.640625 C 28.785156 -2.640625 32.96875 -5.269531 35.34375 -10.53125 L 37.1875 -9.59375 C 36.070312 -7.289062 35.125 -4.8125 34.34375 -2.15625 C 30.226562 -0.34375 26.09375 0.5625 21.9375 0.5625 Z M 21.9375 0.5625 "/>
      </g>
    </g>
  </g>
  <g fill="#fff" fill-opacity="1">
    <g transform="translate(179.776964, 181.696456)">
      <g/></g>
  </g>
  <g fill="#fff" fill-opacity="1">
    <g transform="translate(196.851854, 181.696456)">
      <g>
        <path d="M 40.09375 0 C 37.113281 -0.15625 34.769531 -0.234375 33.0625 -0.234375 C 30.9375 -0.234375 28.484375 -0.15625 25.703125 0 L 25.703125 -1.984375 C 27.347656 -1.984375 28.40625 -2.140625 28.875 -2.453125 C 29.351562 -2.773438 29.59375 -3.457031 29.59375 -4.5 C 29.59375 -5.0625 29.453125 -5.753906 29.171875 -6.578125 L 26.375 -15.21875 L 12.15625 -15.21875 C 9.875 -9.394531 8.734375 -5.820312 8.734375 -4.5 C 8.734375 -3.570312 8.972656 -2.921875 9.453125 -2.546875 C 9.941406 -2.171875 11.039062 -1.984375 12.75 -1.984375 L 12.75 0 C 10.03125 -0.15625 7.707031 -0.234375 5.78125 -0.234375 C 4.21875 -0.234375 2.101562 -0.15625 -0.5625 0 L -0.5625 -1.984375 C 0.738281 -2.023438 1.78125 -2.289062 2.5625 -2.78125 C 3.34375 -3.28125 4.003906 -4.128906 4.546875 -5.328125 L 18.21875 -39.984375 L 22.734375 -41.40625 L 35.28125 -5.921875 C 35.925781 -4.398438 36.488281 -3.363281 36.96875 -2.8125 C 37.457031 -2.257812 38.5 -1.984375 40.09375 -1.984375 Z M 25.359375 -18.234375 L 19.75 -35.265625 L 13.3125 -18.234375 Z M 25.359375 -18.234375 "/>
      </g>
    </g>
  </g>
  <g fill="#fff" fill-opacity="1">
    <g transform="translate(90.916303, 210.196219)">
      <g>
        <path d="M -1.15625 -8.484375 C -0.78125 -6.179688 -1.171875 -4.195312 -2.328125 -2.53125 C -3.492188 -0.875 -5.207031 0.140625 -7.46875 0.515625 C -9.695312 0.878906 -11.660156 0.421875 -13.359375 -0.859375 C -15.066406 -2.140625 -16.097656 -3.890625 -16.453125 -6.109375 C -16.722656 -7.765625 -16.707031 -9.398438 -16.40625 -11.015625 C -16.113281 -11.046875 -15.820312 -11.085938 -15.53125 -11.140625 C -14.613281 -11.285156 -13.671875 -11.515625 -12.703125 -11.828125 L -12.390625 -10.875 C -13.367188 -10.601562 -14.078125 -10.070312 -14.515625 -9.28125 C -14.960938 -8.488281 -15.085938 -7.488281 -14.890625 -6.28125 C -14.648438 -4.8125 -13.960938 -3.738281 -12.828125 -3.0625 C -11.691406 -2.382812 -10.226562 -2.191406 -8.4375 -2.484375 C -6.46875 -2.804688 -4.992188 -3.539062 -4.015625 -4.6875 C -3.035156 -5.832031 -2.675781 -7.203125 -2.9375 -8.796875 C -3.28125 -10.867188 -4.457031 -12.191406 -6.46875 -12.765625 L -6.203125 -13.703125 C -5.085938 -13.253906 -4 -13.015625 -2.9375 -12.984375 C -1.988281 -11.421875 -1.394531 -9.921875 -1.15625 -8.484375 Z M -1.15625 -8.484375 "/>
      </g>
    </g>
  </g>
  <g fill="#fff" fill-opacity="1">
    <g transform="translate(88.211592, 192.996669)">
      <g>
        <path d="M 0.421875 -8.5 C 0.367188 -6.175781 -0.425781 -4.3125 -1.96875 -2.90625 C -3.519531 -1.507812 -5.367188 -0.835938 -7.515625 -0.890625 C -9.742188 -0.941406 -11.570312 -1.773438 -13 -3.390625 C -14.425781 -5.015625 -15.113281 -6.863281 -15.0625 -8.9375 C -15 -11.226562 -14.203125 -13.085938 -12.671875 -14.515625 C -11.148438 -15.941406 -9.34375 -16.628906 -7.25 -16.578125 C -5.007812 -16.523438 -3.15625 -15.722656 -1.6875 -14.171875 C -0.226562 -12.628906 0.472656 -10.738281 0.421875 -8.5 Z M -1.15625 -8.734375 C -1.113281 -10.109375 -1.609375 -11.21875 -2.640625 -12.0625 C -3.671875 -12.914062 -5.109375 -13.363281 -6.953125 -13.40625 C -8.929688 -13.457031 -10.519531 -13.046875 -11.71875 -12.171875 C -12.914062 -11.304688 -13.53125 -10.160156 -13.5625 -8.734375 C -13.59375 -7.367188 -13.097656 -6.253906 -12.078125 -5.390625 C -11.054688 -4.535156 -9.632812 -4.085938 -7.8125 -4.046875 C -5.8125 -4.003906 -4.207031 -4.414062 -3 -5.28125 C -1.800781 -6.15625 -1.1875 -7.304688 -1.15625 -8.734375 Z M -1.15625 -8.734375 "/>
      </g>
    </g>
  </g>
  <g fill="#fff" fill-opacity="1">
    <g transform="translate(88.685447, 173.594866)">
      <g>
        <path d="M 4.859375 -20.03125 C 4.503906 -18.894531 4.21875 -17.867188 4 -16.953125 C 3.875 -16.460938 3.671875 -15.460938 3.390625 -13.953125 L 2.46875 -14.171875 C 2.59375 -14.816406 2.625 -15.296875 2.5625 -15.609375 C 2.507812 -15.929688 2.289062 -16.140625 1.90625 -16.234375 C 1.8125 -16.253906 -1.476562 -16.671875 -7.96875 -17.484375 L -0.8125 -11.890625 C 0.28125 -11.046875 1.207031 -10.453125 1.96875 -10.109375 L 1.71875 -9.03125 C 1.207031 -9.050781 0.414062 -8.984375 -0.65625 -8.828125 L -10.1875 -7.265625 C -5.5625 -5.578125 -2.753906 -4.609375 -1.765625 -4.359375 C -1.066406 -4.191406 -0.578125 -4.171875 -0.296875 -4.296875 C -0.0234375 -4.429688 0.203125 -4.882812 0.390625 -5.65625 L 1.3125 -5.4375 C 0.957031 -4.257812 0.707031 -3.382812 0.5625 -2.8125 C 0.488281 -2.519531 0.328125 -1.679688 0.078125 -0.296875 L -0.84375 -0.515625 C -0.675781 -1.210938 -0.695312 -1.71875 -0.90625 -2.03125 C -1.113281 -2.34375 -1.492188 -2.609375 -2.046875 -2.828125 L -11.546875 -6.140625 C -12.085938 -6.273438 -12.476562 -6.269531 -12.71875 -6.125 C -12.96875 -5.976562 -13.179688 -5.546875 -13.359375 -4.828125 L -14.28125 -5.046875 C -13.988281 -5.910156 -13.757812 -6.6875 -13.59375 -7.375 C -13.488281 -7.820312 -13.328125 -8.660156 -13.109375 -9.890625 C -12.597656 -9.765625 -11.320312 -9.84375 -9.28125 -10.125 L -2.078125 -11.203125 L -7.4375 -15.34375 C -9.375 -16.789062 -10.628906 -17.582031 -11.203125 -17.71875 C -10.835938 -18.925781 -10.601562 -19.75 -10.5 -20.1875 C -10.445312 -20.382812 -10.296875 -21.148438 -10.046875 -22.484375 L -9.125 -22.265625 C -9.289062 -21.578125 -9.300781 -21.09375 -9.15625 -20.8125 C -9.007812 -20.539062 -8.65625 -20.335938 -8.09375 -20.203125 C -7.394531 -20.035156 -5.492188 -19.773438 -2.390625 -19.421875 C 0.703125 -19.066406 2.472656 -18.890625 2.921875 -18.890625 C 3.378906 -18.898438 3.71875 -19.351562 3.9375 -20.25 Z M 4.859375 -20.03125 "/>
      </g>
    </g>
  </g>
  <g fill="#fff" fill-opacity="1">
    <g transform="translate(94.698474, 151.132957)">
      <g>
        <path d="M -3.328125 -7.734375 C -2.703125 -9.367188 -2.53125 -10.6875 -2.8125 -11.6875 C -3.09375 -12.6875 -3.832031 -13.460938 -5.03125 -14.015625 C -5.894531 -14.421875 -6.703125 -14.46875 -7.453125 -14.15625 C -8.210938 -13.851562 -8.816406 -13.234375 -9.265625 -12.296875 C -9.453125 -11.878906 -9.632812 -11.363281 -9.8125 -10.75 Z M 3.203125 -6.875 C 2.492188 -5.539062 1.957031 -4.488281 1.59375 -3.71875 C 1.3125 -3.101562 0.921875 -2.164062 0.421875 -0.90625 L -0.4375 -1.3125 C -0.0507812 -2.132812 0.00390625 -2.703125 -0.265625 -3.015625 C -0.535156 -3.335938 -1.078125 -3.679688 -1.890625 -4.046875 L -10.21875 -7.9375 C -10.75 -8.164062 -11.160156 -8.21875 -11.453125 -8.09375 C -11.742188 -7.96875 -12.023438 -7.609375 -12.296875 -7.015625 L -13.125 -7.40625 C -12.53125 -8.5 -12.085938 -9.359375 -11.796875 -9.984375 C -11.523438 -10.566406 -11.238281 -11.234375 -10.9375 -11.984375 C -10.632812 -12.742188 -10.445312 -13.207031 -10.375 -13.375 C -9.613281 -15 -8.65625 -16.085938 -7.5 -16.640625 C -6.34375 -17.191406 -5.160156 -17.1875 -3.953125 -16.625 C -2.703125 -16.050781 -1.875 -15.097656 -1.46875 -13.765625 C -1.0625 -12.441406 -1.203125 -11.019531 -1.890625 -9.5 C -2.316406 -8.75 -2.71875 -8.125 -3.09375 -7.625 L -0.828125 -6.5625 C 0.140625 -6.113281 0.804688 -5.898438 1.171875 -5.921875 C 1.546875 -5.953125 1.9375 -6.40625 2.34375 -7.28125 Z M 3.203125 -6.875 "/>
      </g>
    </g>
  </g>
  <g fill="#fff" fill-opacity="1">
    <g transform="translate(101.739453, 136.39686)">
      <g>
        <path d="M 7.21875 -10.5 C 5.769531 -8.550781 4.492188 -6.773438 3.390625 -5.171875 C 2.347656 -3.648438 1.40625 -2.203125 0.5625 -0.828125 L -0.21875 -1.375 C 0.28125 -2.09375 0.441406 -2.617188 0.265625 -2.953125 C 0.0546875 -3.335938 -0.4375 -3.8125 -1.21875 -4.375 L -7.953125 -9.015625 C -8.648438 -9.492188 -9.21875 -9.757812 -9.65625 -9.8125 C -10.09375 -9.875 -10.515625 -9.609375 -10.921875 -9.015625 L -11.703125 -9.546875 C -10.972656 -10.484375 -10.367188 -11.300781 -9.890625 -12 C -9.410156 -12.6875 -8.835938 -13.582031 -8.171875 -14.6875 L -7.390625 -14.15625 C -7.804688 -13.550781 -7.910156 -13.046875 -7.703125 -12.640625 C -7.503906 -12.234375 -7.070312 -11.796875 -6.40625 -11.328125 L 1.9375 -5.59375 C 2.507812 -6.332031 2.921875 -6.878906 3.171875 -7.234375 C 4.378906 -8.992188 4.914062 -10.21875 4.78125 -10.90625 C 4.644531 -11.601562 4.332031 -12.265625 3.84375 -12.890625 L 4.65625 -13.484375 C 5.5 -12.367188 6.351562 -11.375 7.21875 -10.5 Z M 7.21875 -10.5 "/>
      </g>
    </g>
  </g>
  <g fill="#fff" fill-opacity="1">
    <g transform="translate(111.40023, 122.669155)">
      <g>
        <path d="M 9 -9.234375 C 6.925781 -7.265625 5.394531 -5.773438 4.40625 -4.765625 C 3.6875 -4.035156 2.453125 -2.6875 0.703125 -0.71875 L 0.015625 -1.390625 C 0.648438 -2.046875 0.867188 -2.582031 0.671875 -3 C 0.472656 -3.414062 -0.0234375 -4.03125 -0.828125 -4.84375 L -6.921875 -10.78125 C -7.347656 -11.195312 -7.722656 -11.410156 -8.046875 -11.421875 C -8.378906 -11.441406 -8.785156 -11.203125 -9.265625 -10.703125 L -9.953125 -11.375 C -8.234375 -12.976562 -6.832031 -14.332031 -5.75 -15.4375 C -4.132812 -17.09375 -2.878906 -18.472656 -1.984375 -19.578125 C -1.265625 -18.921875 -0.425781 -18.4375 0.53125 -18.125 L 0.1875 -17.203125 C -0.632812 -17.484375 -1.300781 -17.5 -1.8125 -17.25 C -2.320312 -17 -3.046875 -16.394531 -3.984375 -15.4375 C -4.316406 -15.09375 -4.910156 -14.457031 -5.765625 -13.53125 L -2.078125 -9.9375 L -0.84375 -11.203125 C -0.300781 -11.773438 0.0234375 -12.238281 0.140625 -12.59375 C 0.253906 -12.957031 0.109375 -13.347656 -0.296875 -13.765625 L 0.390625 -14.296875 C 1.117188 -13.441406 1.660156 -12.84375 2.015625 -12.5 C 2.285156 -12.238281 2.722656 -11.84375 3.328125 -11.3125 L 2.78125 -10.640625 L 2.671875 -10.734375 C 2.273438 -11.128906 1.894531 -11.289062 1.53125 -11.21875 C 1.164062 -11.15625 0.726562 -10.859375 0.21875 -10.328125 L -1.09375 -8.984375 L 2.90625 -5.09375 C 3.425781 -5.53125 4.078125 -6.148438 4.859375 -6.953125 C 5.878906 -8.003906 6.503906 -8.835938 6.734375 -9.453125 C 6.960938 -10.078125 6.800781 -10.921875 6.25 -11.984375 L 7.140625 -12.46875 C 7.816406 -11.195312 8.4375 -10.117188 9 -9.234375 Z M 9 -9.234375 "/>
      </g>
    </g>
  </g>
  <g fill="#fff" fill-opacity="1">
    <g transform="translate(123.296399, 110.638795)">
      <g>
        <path d="M 9.4375 -6.765625 C 7.863281 -5.742188 6.898438 -5.109375 6.546875 -4.859375 C 5.972656 -4.441406 5.109375 -3.765625 3.953125 -2.828125 L 3.390625 -3.609375 C 4.203125 -4.191406 4.5625 -4.679688 4.46875 -5.078125 C 4.375 -5.484375 3.925781 -6.242188 3.125 -7.359375 L -2.3125 -14.9375 L -3.765625 -13.890625 C -4.617188 -13.273438 -5.15625 -12.757812 -5.375 -12.34375 C -5.601562 -11.925781 -5.675781 -11.191406 -5.59375 -10.140625 L -6.640625 -10.15625 C -6.722656 -11.351562 -7.054688 -12.398438 -7.640625 -13.296875 C -7.171875 -13.472656 -6.179688 -14.109375 -4.671875 -15.203125 L 0.3125 -18.765625 C 2.007812 -19.984375 2.992188 -20.769531 3.265625 -21.125 C 3.953125 -20.289062 4.796875 -19.664062 5.796875 -19.25 L 5.34375 -18.140625 C 4.507812 -18.566406 3.851562 -18.726562 3.375 -18.625 C 2.894531 -18.53125 2.25 -18.191406 1.4375 -17.609375 L -0.046875 -16.546875 L 5.328125 -9.0625 C 6.222656 -7.8125 6.847656 -7.113281 7.203125 -6.96875 C 7.503906 -6.769531 8.0625 -6.960938 8.875 -7.546875 Z M 9.4375 -6.765625 "/>
      </g>
    </g>
  </g>
  <g fill="#fff" fill-opacity="1">
    <g transform="translate(138.531634, 100.267821)">
      <g>
        <path d="M 6.859375 -3.53125 C 5.503906 -2.882812 4.5 -2.390625 3.84375 -2.046875 C 3.21875 -1.722656 2.234375 -1.191406 0.890625 -0.453125 L 0.453125 -1.296875 C 1.335938 -1.753906 1.78125 -2.175781 1.78125 -2.5625 C 1.78125 -2.957031 1.351562 -3.984375 0.5 -5.640625 L -2.359375 -11.203125 C -3.003906 -12.453125 -3.472656 -13.175781 -3.765625 -13.375 C -4.066406 -13.582031 -4.625 -13.476562 -5.4375 -13.0625 L -5.875 -13.921875 C -4.632812 -14.460938 -3.640625 -14.925781 -2.890625 -15.3125 C -2.160156 -15.6875 -1.234375 -16.207031 -0.109375 -16.875 L 0.328125 -16.015625 C -0.359375 -15.660156 -0.742188 -15.34375 -0.828125 -15.0625 C -0.941406 -14.675781 -0.648438 -13.8125 0.046875 -12.46875 L 3.109375 -6.46875 C 3.835938 -5.0625 4.351562 -4.25 4.65625 -4.03125 C 4.96875 -3.8125 5.554688 -3.925781 6.421875 -4.375 Z M 6.859375 -3.53125 "/>
      </g>
    </g>
  </g>
  <g fill="#fff" fill-opacity="1">
    <g transform="translate(148.148616, 95.147859)">
      <g>
        <path d="M 8.125 -2.46875 C 5.925781 -1.738281 3.90625 -1.863281 2.0625 -2.84375 C 0.226562 -3.820312 -1.023438 -5.328125 -1.703125 -7.359375 C -2.398438 -9.484375 -2.226562 -11.488281 -1.1875 -13.375 C -0.15625 -15.257812 1.34375 -16.53125 3.3125 -17.1875 C 5.488281 -17.90625 7.507812 -17.785156 9.375 -16.828125 C 11.238281 -15.867188 12.5 -14.394531 13.15625 -12.40625 C 13.863281 -10.28125 13.734375 -8.269531 12.765625 -6.375 C 11.796875 -4.476562 10.25 -3.175781 8.125 -2.46875 Z M 7.84375 -4.03125 C 9.144531 -4.46875 10.019531 -5.3125 10.46875 -6.5625 C 10.914062 -7.8125 10.851562 -9.3125 10.28125 -11.0625 C 9.65625 -12.945312 8.734375 -14.304688 7.515625 -15.140625 C 6.296875 -15.972656 5.007812 -16.160156 3.65625 -15.703125 C 2.351562 -15.273438 1.46875 -14.4375 1 -13.1875 C 0.539062 -11.9375 0.597656 -10.445312 1.171875 -8.71875 C 1.796875 -6.820312 2.722656 -5.453125 3.953125 -4.609375 C 5.191406 -3.773438 6.488281 -3.582031 7.84375 -4.03125 Z M 7.84375 -4.03125 "/>
      </g>
    </g>
  </g>
  <g fill="#fff" fill-opacity="1">
    <g transform="translate(166.673199, 89.163072)">
      <g>
        <path d="M 15.890625 -1.8125 L 13.8125 -1.5625 C 13.632812 -1.84375 13.15625 -2.347656 12.375 -3.078125 L 3.015625 -11.921875 C 3.722656 -6.085938 4.179688 -2.90625 4.390625 -2.375 C 4.523438 -2.0625 4.703125 -1.851562 4.921875 -1.75 C 5.140625 -1.644531 5.585938 -1.632812 6.265625 -1.71875 L 6.375 -0.765625 C 5.039062 -0.671875 4.128906 -0.59375 3.640625 -0.53125 C 3.242188 -0.488281 2.363281 -0.351562 1 -0.125 L 0.890625 -1.078125 C 1.523438 -1.148438 1.941406 -1.265625 2.140625 -1.421875 C 2.347656 -1.578125 2.476562 -1.796875 2.53125 -2.078125 C 2.59375 -2.773438 2.523438 -3.914062 2.328125 -5.5 L 1.484375 -12.5625 C 1.398438 -13.21875 1.226562 -13.664062 0.96875 -13.90625 C 0.71875 -14.15625 0.171875 -14.226562 -0.671875 -14.125 L -0.796875 -15.078125 C 0.328125 -15.148438 1.117188 -15.210938 1.578125 -15.265625 C 2.003906 -15.316406 2.753906 -15.441406 3.828125 -15.640625 C 4.078125 -15.117188 4.53125 -14.53125 5.1875 -13.875 L 13.71875 -5.734375 L 12.75 -13.71875 C 12.582031 -14.300781 12.484375 -14.644531 12.453125 -14.75 C 12.328125 -15.0625 12.148438 -15.28125 11.921875 -15.40625 C 11.691406 -15.53125 11.238281 -15.554688 10.5625 -15.484375 L 10.4375 -16.4375 C 11.726562 -16.53125 12.613281 -16.601562 13.09375 -16.65625 C 13.675781 -16.726562 14.550781 -16.863281 15.71875 -17.0625 L 15.84375 -16.109375 C 15.15625 -16.035156 14.71875 -15.847656 14.53125 -15.546875 C 14.34375 -15.253906 14.28125 -14.550781 14.34375 -13.4375 L 15.515625 -3.671875 C 15.597656 -2.992188 15.722656 -2.375 15.890625 -1.8125 Z M 15.890625 -1.8125 "/>
      </g>
    </g>
  </g>
  <g fill="#fff" fill-opacity="1">
    <g transform="translate(187.210504, 87.252813)">
      <g>
        <path d="M 7.71875 0.296875 C 6.21875 0.179688 5.097656 0.113281 4.359375 0.09375 C 3.648438 0.0625 2.53125 0.0390625 1 0.03125 L 1.03125 -0.921875 C 2.03125 -0.878906 2.625 -1.03125 2.8125 -1.375 C 3 -1.71875 3.128906 -2.820312 3.203125 -4.6875 L 3.4375 -10.921875 C 3.488281 -12.328125 3.429688 -13.191406 3.265625 -13.515625 C 3.109375 -13.835938 2.570312 -14.015625 1.65625 -14.046875 L 1.703125 -15 C 3.054688 -14.875 4.15625 -14.796875 5 -14.765625 C 5.820312 -14.734375 6.882812 -14.726562 8.1875 -14.75 L 8.140625 -13.796875 C 7.359375 -13.828125 6.867188 -13.738281 6.671875 -13.53125 C 6.390625 -13.238281 6.21875 -12.335938 6.15625 -10.828125 L 5.90625 -4.109375 C 5.84375 -2.523438 5.890625 -1.5625 6.046875 -1.21875 C 6.203125 -0.882812 6.769531 -0.695312 7.75 -0.65625 Z M 7.71875 0.296875 "/>
      </g>
    </g>
  </g>
  <g fill="#fff" fill-opacity="1">
    <g transform="translate(198.208629, 87.687788)">
      <g>
        <path d="M 5.15625 1.109375 C 3.851562 0.890625 2.640625 0.421875 1.515625 -0.296875 L 1.625 -0.90625 C 1.789062 -1.882812 1.773438 -3.015625 1.578125 -4.296875 L 2.71875 -4.390625 C 2.832031 -3.097656 3.132812 -2.132812 3.625 -1.5 C 4.125 -0.875 4.945312 -0.460938 6.09375 -0.265625 C 7.007812 -0.109375 7.757812 -0.195312 8.34375 -0.53125 C 8.9375 -0.875 9.296875 -1.390625 9.421875 -2.078125 C 9.671875 -3.535156 8.65625 -4.800781 6.375 -5.875 C 4.09375 -6.945312 3.109375 -8.390625 3.421875 -10.203125 C 3.648438 -11.515625 4.320312 -12.519531 5.4375 -13.21875 C 6.550781 -13.914062 7.941406 -14.117188 9.609375 -13.828125 C 10.578125 -13.660156 11.675781 -13.203125 12.90625 -12.453125 C 12.71875 -11.367188 12.71875 -10.21875 12.90625 -9 L 11.828125 -9 C 11.765625 -10.851562 10.867188 -11.945312 9.140625 -12.28125 C 8.253906 -12.425781 7.523438 -12.347656 6.953125 -12.046875 C 6.390625 -11.753906 6.054688 -11.320312 5.953125 -10.75 C 5.710938 -9.34375 6.769531 -8.113281 9.125 -7.0625 C 11.488281 -6.019531 12.515625 -4.582031 12.203125 -2.75 C 11.953125 -1.28125 11.195312 -0.1875 9.9375 0.53125 C 8.675781 1.25 7.082031 1.441406 5.15625 1.109375 Z M 5.15625 1.109375 "/>
      </g>
    </g>
  </g>
  <g fill="#fff" fill-opacity="1">
    <g transform="translate(213.150977, 90.318355)">
      <g>
        <path d="M 10.953125 3.859375 C 9.210938 3.148438 8.140625 2.726562 7.734375 2.59375 C 7.066406 2.351562 6.015625 2.023438 4.578125 1.609375 L 4.890625 0.703125 C 5.835938 1.035156 6.445312 1.050781 6.71875 0.75 C 7 0.445312 7.363281 -0.351562 7.8125 -1.65625 L 10.921875 -10.453125 L 9.234375 -11.046875 C 8.234375 -11.390625 7.5 -11.535156 7.03125 -11.484375 C 6.5625 -11.429688 5.921875 -11.066406 5.109375 -10.390625 L 4.515625 -11.265625 C 5.453125 -12.003906 6.117188 -12.875 6.515625 -13.875 C 6.941406 -13.59375 8.035156 -13.140625 9.796875 -12.515625 L 15.5625 -10.484375 C 17.53125 -9.785156 18.734375 -9.429688 19.171875 -9.421875 C 18.890625 -8.367188 18.863281 -7.316406 19.09375 -6.265625 L 17.9375 -6.015625 C 17.800781 -6.929688 17.554688 -7.5625 17.203125 -7.90625 C 16.859375 -8.25 16.210938 -8.582031 15.265625 -8.90625 L 13.546875 -9.515625 L 10.484375 -0.8125 C 9.972656 0.625 9.757812 1.53125 9.84375 1.90625 C 9.84375 2.269531 10.316406 2.617188 11.265625 2.953125 Z M 10.953125 3.859375 "/>
      </g>
    </g>
  </g>
  <g fill="#fff" fill-opacity="1">
    <g transform="translate(230.417995, 96.938833)">
      <g/></g>
  </g>
  <g fill="#fff" fill-opacity="1">
    <g transform="translate(238.288519, 100.82081)">
      <g>
        <path d="M 13.015625 9.125 C 11.773438 8.164062 10.921875 7.519531 10.453125 7.1875 C 9.984375 6.863281 9.0625 6.265625 7.6875 5.390625 L 8.234375 4.609375 C 8.765625 4.984375 9.144531 5.179688 9.375 5.203125 C 9.613281 5.234375 9.832031 5.109375 10.03125 4.828125 C 10.144531 4.660156 10.265625 4.375 10.390625 3.96875 L 11.171875 1.359375 L 6.828125 -1.6875 C 5.210938 -0.644531 4.289062 0.046875 4.0625 0.390625 C 3.84375 0.703125 3.769531 0.984375 3.84375 1.234375 C 3.925781 1.484375 4.207031 1.78125 4.6875 2.125 L 4.140625 2.90625 C 3.023438 2.03125 2.253906 1.441406 1.828125 1.140625 C 1.453125 0.878906 0.710938 0.410156 -0.390625 -0.265625 L 0.15625 -1.046875 C 0.707031 -0.660156 1.210938 -0.503906 1.671875 -0.578125 C 2.484375 -0.722656 6.648438 -3.335938 14.171875 -8.421875 L 16.375 -7.359375 C 14.5625 -0.941406 13.347656 3.671875 12.734375 6.484375 C 12.554688 7.210938 12.832031 7.832031 13.5625 8.34375 Z M 11.625 -0.15625 L 13.359375 -6.078125 L 8.140625 -2.59375 Z M 11.625 -0.15625 "/>
      </g>
    </g>
  </g>
  <g fill="#fff" fill-opacity="1">
    <g transform="translate(252.840191, 111.288323)">
      <g>
        <path d="M 5.875 6.234375 C 4.226562 4.578125 3.394531 2.734375 3.375 0.703125 C 3.351562 -1.316406 4.160156 -3.132812 5.796875 -4.75 C 7.398438 -6.34375 9.265625 -7.113281 11.390625 -7.0625 C 13.515625 -7.007812 15.367188 -6.1875 16.953125 -4.59375 C 18.128906 -3.40625 19.054688 -2.066406 19.734375 -0.578125 C 19.523438 -0.367188 19.316406 -0.160156 19.109375 0.046875 C 18.453125 0.703125 17.820312 1.429688 17.21875 2.234375 L 16.40625 1.671875 C 17.039062 0.867188 17.304688 0.0195312 17.203125 -0.875 C 17.109375 -1.78125 16.628906 -2.664062 15.765625 -3.53125 C 14.722656 -4.59375 13.539062 -5.066406 12.21875 -4.953125 C 10.90625 -4.847656 9.609375 -4.160156 8.328125 -2.890625 C 6.898438 -1.484375 6.117188 -0.03125 5.984375 1.46875 C 5.847656 2.976562 6.351562 4.304688 7.5 5.453125 C 8.96875 6.941406 10.695312 7.332031 12.6875 6.625 L 13 7.546875 C 11.832031 7.828125 10.8125 8.265625 9.9375 8.859375 C 8.25 8.140625 6.894531 7.265625 5.875 6.234375 Z M 5.875 6.234375 "/>
      </g>
    </g>
  </g>
  <g fill="#fff" fill-opacity="1">
    <g transform="translate(265.009138, 123.796186)">
      <g>
        <path d="M 9.015625 13.078125 C 8.191406 11.753906 7.617188 10.859375 7.296875 10.390625 C 6.972656 9.910156 6.316406 9.023438 5.328125 7.734375 L 6.109375 7.1875 C 6.472656 7.71875 6.757812 8.035156 6.96875 8.140625 C 7.1875 8.253906 7.441406 8.210938 7.734375 8.015625 C 7.890625 7.898438 8.097656 7.671875 8.359375 7.328125 L 9.984375 5.171875 L 6.984375 0.8125 C 5.109375 1.226562 4 1.550781 3.65625 1.78125 C 3.351562 2 3.191406 2.238281 3.171875 2.5 C 3.160156 2.757812 3.320312 3.132812 3.65625 3.625 L 2.875 4.171875 C 2.132812 2.960938 1.613281 2.144531 1.3125 1.71875 C 1.050781 1.332031 0.523438 0.628906 -0.265625 -0.390625 L 0.515625 -0.9375 C 0.890625 -0.382812 1.304688 -0.0625 1.765625 0.03125 C 2.578125 0.175781 7.398438 -0.820312 16.234375 -2.96875 L 17.921875 -1.203125 C 13.972656 4.191406 11.222656 8.09375 9.671875 10.5 C 9.253906 11.125 9.296875 11.800781 9.796875 12.53125 Z M 10.9375 3.890625 L 14.65625 -1.046875 L 8.53125 0.40625 Z M 10.9375 3.890625 "/>
      </g>
    </g>
  </g>
  <g fill="#fff" fill-opacity="1">
    <g transform="translate(275.060729, 138.572936)">
      <g>
        <path d="M 3.171875 7.359375 C 3.085938 7.171875 2.863281 6.597656 2.5 5.640625 C 2.144531 4.679688 1.800781 3.828125 1.46875 3.078125 C 1.394531 2.898438 1.039062 2.179688 0.40625 0.921875 L 1.28125 0.53125 C 1.632812 1.34375 2.082031 1.722656 2.625 1.671875 C 3.164062 1.628906 4.046875 1.335938 5.265625 0.796875 L 11.75 -2.0625 C 12.570312 -2.414062 13.125 -2.75 13.40625 -3.0625 C 13.695312 -3.382812 13.679688 -3.910156 13.359375 -4.640625 L 14.234375 -5.03125 C 14.609375 -3.976562 14.9375 -3.140625 15.21875 -2.515625 C 15.46875 -1.953125 15.8125 -1.234375 16.25 -0.359375 C 16.695312 0.503906 16.992188 1.097656 17.140625 1.421875 C 18.191406 3.804688 18.378906 5.945312 17.703125 7.84375 C 17.035156 9.738281 15.644531 11.148438 13.53125 12.078125 C 11.488281 12.972656 9.515625 13.007812 7.609375 12.1875 C 5.703125 11.375 4.222656 9.765625 3.171875 7.359375 Z M 4.53125 6.765625 C 5.238281 8.367188 6.238281 9.394531 7.53125 9.84375 C 8.832031 10.300781 10.316406 10.160156 11.984375 9.421875 C 13.847656 8.597656 15.085938 7.503906 15.703125 6.140625 C 16.328125 4.773438 16.273438 3.265625 15.546875 1.609375 C 15.335938 1.140625 15.003906 0.492188 14.546875 -0.328125 L 3.78125 4.421875 C 3.945312 5.222656 4.195312 6.003906 4.53125 6.765625 Z M 4.53125 6.765625 "/>
      </g>
    </g>
  </g>
  <g fill="#fff" fill-opacity="1">
    <g transform="translate(282.699062, 156.716198)">
      <g>
        <path d="M 2.953125 12.546875 C 2.398438 9.742188 1.96875 7.648438 1.65625 6.265625 C 1.425781 5.273438 0.953125 3.507812 0.234375 0.96875 L 1.15625 0.75 C 1.363281 1.644531 1.695312 2.117188 2.15625 2.171875 C 2.625 2.234375 3.410156 2.144531 4.515625 1.90625 L 12.8125 -0.046875 C 13.382812 -0.179688 13.765625 -0.378906 13.953125 -0.640625 C 14.148438 -0.910156 14.171875 -1.382812 14.015625 -2.0625 L 14.9375 -2.28125 C 15.363281 0.0390625 15.753906 1.953125 16.109375 3.453125 C 16.640625 5.703125 17.117188 7.5 17.546875 8.84375 C 16.617188 9.09375 15.769531 9.535156 15 10.171875 L 14.40625 9.40625 C 15.082031 8.863281 15.453125 8.304688 15.515625 7.734375 C 15.585938 7.171875 15.472656 6.242188 15.171875 4.953125 C 15.054688 4.472656 14.832031 3.625 14.5 2.40625 L 9.5 3.59375 L 9.90625 5.3125 C 10.09375 6.070312 10.304688 6.597656 10.546875 6.890625 C 10.785156 7.191406 11.191406 7.28125 11.765625 7.15625 L 11.84375 8.015625 C 10.726562 8.160156 9.9375 8.289062 9.46875 8.40625 C 9.101562 8.488281 8.53125 8.644531 7.75 8.875 L 7.484375 8.0625 L 7.609375 8.03125 C 8.160156 7.90625 8.503906 7.671875 8.640625 7.328125 C 8.773438 6.984375 8.757812 6.453125 8.59375 5.734375 L 8.15625 3.90625 L 2.71875 5.171875 C 2.820312 5.859375 3.003906 6.75 3.265625 7.84375 C 3.597656 9.269531 3.960938 10.242188 4.359375 10.765625 C 4.753906 11.285156 5.546875 11.601562 6.734375 11.71875 L 6.671875 12.71875 C 5.234375 12.601562 3.992188 12.546875 2.953125 12.546875 Z M 2.953125 12.546875 "/>
      </g>
    </g>
  </g>
  <g fill="#fff" fill-opacity="1">
    <g transform="translate(286.670826, 173.04671)">
      <g>
        <path d="M 0.625 20.59375 C 0.65625 19.40625 0.660156 18.335938 0.640625 17.390625 C 0.617188 16.898438 0.550781 15.890625 0.4375 14.359375 L 1.390625 14.328125 C 1.429688 14.984375 1.519531 15.453125 1.65625 15.734375 C 1.800781 16.023438 2.070312 16.164062 2.46875 16.15625 C 2.5625 16.15625 5.84375 15.6875 12.3125 14.75 L 3.9375 11.265625 C 2.65625 10.734375 1.601562 10.40625 0.78125 10.28125 L 0.75 9.171875 C 1.226562 9.054688 1.96875 8.78125 2.96875 8.34375 L 11.75 4.3125 C 6.84375 3.90625 3.878906 3.71875 2.859375 3.75 C 2.140625 3.769531 1.660156 3.878906 1.421875 4.078125 C 1.191406 4.273438 1.09375 4.769531 1.125 5.5625 L 0.171875 5.59375 C 0.203125 4.363281 0.210938 3.453125 0.203125 2.859375 C 0.191406 2.554688 0.128906 1.707031 0.015625 0.3125 L 0.96875 0.28125 C 0.988281 1 1.132812 1.476562 1.40625 1.71875 C 1.6875 1.96875 2.125 2.125 2.71875 2.1875 L 12.765625 2.875 C 13.316406 2.851562 13.691406 2.738281 13.890625 2.53125 C 14.085938 2.332031 14.175781 1.863281 14.15625 1.125 L 15.109375 1.09375 C 15.066406 1.988281 15.054688 2.789062 15.078125 3.5 C 15.085938 3.957031 15.148438 4.816406 15.265625 6.078125 C 14.742188 6.097656 13.535156 6.507812 11.640625 7.3125 L 4.96875 10.265625 L 11.234375 12.828125 C 13.492188 13.710938 14.914062 14.144531 15.5 14.125 C 15.46875 15.382812 15.457031 16.234375 15.46875 16.671875 C 15.476562 16.867188 15.539062 17.648438 15.65625 19.015625 L 14.703125 19.046875 C 14.671875 18.335938 14.546875 17.867188 14.328125 17.640625 C 14.117188 17.421875 13.726562 17.320312 13.15625 17.34375 C 12.4375 17.363281 10.535156 17.613281 7.453125 18.09375 C 4.367188 18.570312 2.609375 18.875 2.171875 19 C 1.742188 19.125 1.546875 19.644531 1.578125 20.5625 Z M 0.625 20.59375 "/>
      </g>
    </g>
  </g>
  <g fill="#fff" fill-opacity="1">
    <g transform="translate(286.810798, 196.305674)">
      <g>
        <path d="M -1.78125 10.5625 C -1.445312 9.070312 -1.210938 7.925781 -1.078125 7.125 C -1.035156 6.875 -0.890625 5.769531 -0.640625 3.8125 L 0.296875 3.96875 C 0.140625 4.882812 0.175781 5.46875 0.40625 5.71875 C 0.632812 5.976562 1.15625 6.1875 1.96875 6.34375 L 5.25 6.90625 L 11.59375 4.484375 C 12.1875 4.285156 12.691406 4.046875 13.109375 3.765625 C 13.523438 3.484375 13.78125 3.085938 13.875 2.578125 L 14.8125 2.734375 C 14.5 4.097656 14.273438 5.171875 14.140625 5.953125 C 14.046875 6.515625 13.921875 7.503906 13.765625 8.921875 L 12.828125 8.765625 C 12.972656 7.898438 12.851562 7.429688 12.46875 7.359375 C 12.1875 7.316406 11.660156 7.425781 10.890625 7.6875 L 6.453125 9.234375 C 8.210938 10.660156 9.335938 11.5625 9.828125 11.9375 C 10.316406 12.320312 10.675781 12.585938 10.90625 12.734375 C 11.132812 12.878906 11.316406 12.96875 11.453125 13 C 11.878906 13.070312 12.15625 12.71875 12.28125 11.9375 L 13.21875 12.09375 C 12.957031 13.1875 12.785156 13.976562 12.703125 14.46875 C 12.617188 14.988281 12.519531 15.816406 12.40625 16.953125 L 11.46875 16.796875 C 11.570312 16.191406 11.515625 15.75 11.296875 15.46875 C 11.085938 15.1875 10.820312 14.898438 10.5 14.609375 C 10.25 14.390625 8.367188 12.742188 4.859375 9.671875 L 1.546875 9.125 C 0.691406 9.007812 0.117188 9.019531 -0.171875 9.15625 C -0.472656 9.300781 -0.695312 9.820312 -0.84375 10.71875 Z M -1.78125 10.5625 "/>
      </g>
    </g>
  </g>
  <g fill="#fff" fill-opacity="1">
    <g transform="translate(94.717447, 249.219093)">
      <g>
        <path d="M 4.640625 6.6875 C 4.316406 6.164062 4.054688 5.765625 3.859375 5.484375 C 3.617188 5.140625 3.320312 4.738281 2.96875 4.28125 L 3.296875 4.046875 C 3.492188 4.328125 3.644531 4.488281 3.75 4.53125 C 3.851562 4.570312 3.992188 4.535156 4.171875 4.421875 C 4.273438 4.347656 4.375 4.242188 4.46875 4.109375 L 5.609375 2.640625 L 3.953125 0.265625 C 2.710938 0.566406 1.984375 0.796875 1.765625 0.953125 C 1.609375 1.054688 1.523438 1.164062 1.515625 1.28125 C 1.515625 1.40625 1.613281 1.609375 1.8125 1.890625 L 1.484375 2.125 C 1.179688 1.65625 0.921875 1.257812 0.703125 0.9375 C 0.523438 0.675781 0.269531 0.332031 -0.0625 -0.09375 L 0.265625 -0.328125 C 0.421875 -0.109375 0.582031 0.03125 0.75 0.09375 C 0.925781 0.164062 1.148438 0.179688 1.421875 0.140625 L 8.78125 -1.578125 L 9.5625 -1 L 5.078125 5.203125 C 4.898438 5.492188 4.789062 5.707031 4.75 5.84375 C 4.707031 5.988281 4.78125 6.191406 4.96875 6.453125 Z M 5.984375 2.125 L 8.171875 -0.796875 L 4.59375 0.109375 Z M 5.984375 2.125 "/>
      </g>
    </g>
  </g>
  <g fill="#fff" fill-opacity="1">
    <g transform="translate(101.754447, 258.979367)">
      <g>
        <path d="M 2.84375 3.4375 C 1.207031 1.34375 1.359375 -0.609375 3.296875 -2.421875 C 5.429688 -4.097656 7.429688 -3.957031 9.296875 -2 C 9.773438 -1.445312 10.175781 -0.75 10.5 0.09375 C 10.0625 0.476562 9.679688 0.941406 9.359375 1.484375 L 9.03125 1.234375 C 9.5625 0.179688 9.425781 -0.800781 8.625 -1.71875 C 7.363281 -3.03125 5.90625 -3.015625 4.25 -1.671875 C 2.550781 -0.0546875 2.28125 1.546875 3.4375 3.140625 C 4.238281 4.066406 5.203125 4.359375 6.328125 4.015625 L 6.421875 4.421875 C 5.921875 4.566406 5.414062 4.753906 4.90625 4.984375 C 4.082031 4.585938 3.394531 4.070312 2.84375 3.4375 Z M 2.84375 3.4375 "/>
      </g>
    </g>
  </g>
  <g fill="#fff" fill-opacity="1">
    <g transform="translate(109.731715, 267.839184)">
      <g>
        <path d="M 3.1875 3.109375 C 1.34375 1.210938 1.28125 -0.742188 3 -2.765625 C 4.957031 -4.671875 6.96875 -4.742188 9.03125 -2.984375 C 9.5625 -2.492188 10.039062 -1.847656 10.46875 -1.046875 C 10.070312 -0.617188 9.738281 -0.113281 9.46875 0.46875 L 9.109375 0.25 C 9.515625 -0.851562 9.273438 -1.816406 8.390625 -2.640625 C 6.992188 -3.816406 5.550781 -3.640625 4.0625 -2.109375 C 2.53125 -0.328125 2.425781 1.289062 3.75 2.75 C 4.644531 3.582031 5.632812 3.773438 6.71875 3.328125 L 6.875 3.703125 C 6.382812 3.890625 5.898438 4.128906 5.421875 4.421875 C 4.546875 4.117188 3.800781 3.679688 3.1875 3.109375 Z M 3.1875 3.109375 "/>
      </g>
    </g>
  </g>
  <g fill="#fff" fill-opacity="1">
    <g transform="translate(118.619595, 275.815135)">
      <g>
        <path d="M 3.453125 2.671875 C 2.472656 1.960938 1.9375 1.046875 1.84375 -0.078125 C 1.75 -1.210938 2.035156 -2.234375 2.703125 -3.140625 C 3.429688 -4.128906 4.359375 -4.695312 5.484375 -4.84375 C 6.609375 -4.988281 7.597656 -4.75 8.453125 -4.125 C 9.367188 -3.445312 9.910156 -2.566406 10.078125 -1.484375 C 10.253906 -0.410156 9.960938 0.632812 9.203125 1.65625 C 8.441406 2.695312 7.503906 3.28125 6.390625 3.40625 C 5.273438 3.53125 4.296875 3.285156 3.453125 2.671875 Z M 3.921875 2.234375 C 4.554688 2.703125 5.253906 2.835938 6.015625 2.640625 C 6.785156 2.441406 7.484375 1.921875 8.109375 1.078125 C 8.773438 0.179688 9.085938 -0.710938 9.046875 -1.609375 C 9.003906 -2.503906 8.644531 -3.195312 7.96875 -3.6875 C 7.332031 -4.15625 6.640625 -4.296875 5.890625 -4.109375 C 5.140625 -3.929688 4.460938 -3.429688 3.859375 -2.609375 C 3.179688 -1.679688 2.859375 -0.765625 2.890625 0.140625 C 2.921875 1.046875 3.265625 1.742188 3.921875 2.234375 Z M 3.921875 2.234375 "/>
      </g>
    </g>
  </g>
  <g fill="#fff" fill-opacity="1">
    <g transform="translate(129.295138, 283.417159)">
      <g>
        <path d="M 9.1875 5.109375 C 8.675781 4.785156 8.257812 4.535156 7.9375 4.359375 C 7.582031 4.160156 7.148438 3.9375 6.640625 3.6875 L 6.84375 3.328125 C 7.175781 3.515625 7.429688 3.617188 7.609375 3.640625 C 7.785156 3.660156 7.9375 3.5625 8.0625 3.34375 C 8.09375 3.300781 8.835938 1.503906 10.296875 -2.046875 L 5.78125 1.421875 C 5.382812 1.703125 5.050781 2 4.78125 2.3125 L 4.453125 2.125 C 4.523438 1.9375 4.59375 1.539062 4.65625 0.9375 L 5.125 -4.578125 L 2.265625 -0.296875 C 2.078125 0.046875 2 0.296875 2.03125 0.453125 C 2.0625 0.609375 2.273438 0.796875 2.671875 1.015625 L 2.46875 1.375 C 2.007812 1.082031 1.617188 0.847656 1.296875 0.671875 C 1.023438 0.515625 0.648438 0.320312 0.171875 0.09375 L 0.375 -0.265625 C 0.65625 -0.109375 0.859375 -0.0195312 0.984375 0 C 1.117188 0.0195312 1.285156 -0.0625 1.484375 -0.25 L 4.953125 -5.40625 C 5.078125 -5.625 5.101562 -5.804688 5.03125 -5.953125 C 4.96875 -6.109375 4.789062 -6.269531 4.5 -6.4375 L 4.6875 -6.796875 C 5.144531 -6.492188 5.453125 -6.300781 5.609375 -6.21875 C 5.703125 -6.164062 6 -6.023438 6.5 -5.796875 C 6.3125 -5.453125 6.097656 -3.734375 5.859375 -0.640625 C 5.816406 -0.0664062 5.78125 0.378906 5.75 0.703125 L 8.90625 -1.65625 C 9.9375 -2.4375 10.53125 -2.925781 10.6875 -3.125 C 10.75 -3.195312 10.800781 -3.28125 10.84375 -3.375 C 11.21875 -3.132812 11.519531 -2.945312 11.75 -2.8125 C 11.988281 -2.6875 12.289062 -2.539062 12.65625 -2.375 L 12.46875 -2.015625 C 12.144531 -2.171875 11.898438 -2.226562 11.734375 -2.1875 C 11.566406 -2.144531 11.410156 -1.988281 11.265625 -1.71875 C 11.097656 -1.425781 10.664062 -0.441406 9.96875 1.234375 C 9.28125 2.921875 8.910156 3.859375 8.859375 4.046875 C 8.785156 4.273438 8.960938 4.507812 9.390625 4.75 Z M 9.1875 5.109375 "/>
      </g>
    </g>
  </g>
  <g fill="#fff" fill-opacity="1">
    <g transform="translate(142.408101, 290.312343)">
      <g>
        <path d="M 3.546875 -2.375 C 4.085938 -2.15625 4.601562 -2.03125 5.09375 -2 C 5.582031 -1.976562 5.976562 -2.050781 6.28125 -2.21875 C 6.59375 -2.394531 6.863281 -2.757812 7.09375 -3.3125 C 7.519531 -4.425781 7.140625 -5.238281 5.953125 -5.75 C 5.691406 -5.863281 5.390625 -5.953125 5.046875 -6.015625 Z M 3.171875 1.3125 C 2.679688 1.070312 2.179688 0.847656 1.671875 0.640625 C 1.273438 0.472656 0.828125 0.304688 0.328125 0.140625 L 0.484375 -0.234375 C 0.921875 -0.0546875 1.222656 -0.0390625 1.390625 -0.1875 C 1.554688 -0.34375 1.726562 -0.640625 1.90625 -1.078125 L 3.875 -5.875 C 4 -6.175781 4.03125 -6.410156 3.96875 -6.578125 C 3.914062 -6.753906 3.734375 -6.90625 3.421875 -7.03125 L 3.578125 -7.40625 C 4.035156 -7.1875 4.488281 -6.984375 4.9375 -6.796875 C 5.195312 -6.679688 5.507812 -6.554688 5.875 -6.421875 C 6.238281 -6.296875 6.472656 -6.210938 6.578125 -6.171875 C 8.203125 -5.460938 8.742188 -4.414062 8.203125 -3.03125 C 7.804688 -2.125 7.316406 -1.59375 6.734375 -1.4375 C 6.128906 -1.238281 5.382812 -1.320312 4.5 -1.6875 C 4.113281 -1.851562 3.785156 -2.046875 3.515625 -2.265625 L 2.859375 -0.6875 C 2.679688 -0.257812 2.597656 0.0664062 2.609375 0.296875 C 2.617188 0.523438 2.859375 0.738281 3.328125 0.9375 Z M 3.171875 1.3125 "/>
      </g>
    </g>
  </g>
  <g fill="#fff" fill-opacity="1">
    <g transform="translate(152.567935, 294.283778)">
      <g>
        <path d="M 5.875 1.765625 C 4.71875 1.367188 3.671875 1.03125 2.734375 0.75 C 2.046875 0.539062 1.25 0.328125 0.34375 0.109375 L 0.453125 -0.28125 C 0.753906 -0.195312 1 -0.175781 1.1875 -0.21875 C 1.382812 -0.269531 1.53125 -0.445312 1.625 -0.75 L 3.03125 -5.4375 C 3.21875 -6.070312 3.296875 -6.519531 3.265625 -6.78125 C 3.234375 -7.050781 3.046875 -7.238281 2.703125 -7.34375 L 2.828125 -7.734375 C 3.179688 -7.578125 3.628906 -7.421875 4.171875 -7.265625 C 4.597656 -7.140625 5.050781 -7.023438 5.53125 -6.921875 L 5.40625 -6.53125 C 5 -6.65625 4.710938 -6.609375 4.546875 -6.390625 C 4.390625 -6.171875 4.21875 -5.738281 4.03125 -5.09375 L 2.484375 0.0625 L 3.578125 0.390625 C 5.148438 0.859375 6.148438 0.691406 6.578125 -0.109375 L 6.9375 0.140625 C 6.507812 0.648438 6.15625 1.191406 5.875 1.765625 Z M 5.875 1.765625 "/>
      </g>
    </g>
  </g>
  <g fill="#fff" fill-opacity="1">
    <g transform="translate(163.099064, 297.196974)">
      <g>
        <path d="M 3.328125 0.703125 C 2.722656 0.535156 2.234375 0.414062 1.859375 0.34375 C 1.441406 0.25 0.941406 0.160156 0.359375 0.078125 L 0.4375 -0.3125 C 0.925781 -0.207031 1.226562 -0.234375 1.34375 -0.390625 C 1.457031 -0.554688 1.554688 -0.832031 1.640625 -1.21875 L 2.65625 -6.078125 C 2.738281 -6.472656 2.769531 -6.789062 2.75 -7.03125 C 2.726562 -7.28125 2.476562 -7.453125 2 -7.546875 L 2.09375 -7.953125 C 2.582031 -7.804688 3.054688 -7.6875 3.515625 -7.59375 C 3.929688 -7.507812 4.410156 -7.429688 4.953125 -7.359375 L 4.859375 -6.953125 C 4.378906 -7.054688 4.082031 -7.003906 3.96875 -6.796875 C 3.863281 -6.597656 3.769531 -6.289062 3.6875 -5.875 L 2.671875 -0.984375 C 2.585938 -0.585938 2.566406 -0.296875 2.609375 -0.109375 C 2.648438 0.0664062 2.914062 0.207031 3.40625 0.3125 Z M 3.328125 0.703125 "/>
      </g>
    </g>
  </g>
  <g fill="#fff" fill-opacity="1">
    <g transform="translate(170.767999, 298.692276)">
      <g>
        <path d="M 2.765625 0.453125 C 2.046875 0.359375 1.375 0.148438 0.75 -0.171875 C 0.769531 -0.253906 0.789062 -0.375 0.8125 -0.53125 C 0.875 -1.070312 0.800781 -1.539062 0.59375 -1.9375 L 1.03125 -2.125 C 1.332031 -0.945312 2.03125 -0.289062 3.125 -0.15625 C 4.300781 -0.0507812 4.992188 -0.484375 5.203125 -1.453125 C 5.304688 -2.222656 4.671875 -2.878906 3.296875 -3.421875 C 1.929688 -3.960938 1.316406 -4.769531 1.453125 -5.84375 C 1.753906 -7.332031 2.722656 -8.003906 4.359375 -7.859375 C 4.867188 -7.785156 5.492188 -7.59375 6.234375 -7.28125 C 6.160156 -6.707031 6.238281 -6.210938 6.46875 -5.796875 L 5.984375 -5.609375 C 5.847656 -6.535156 5.242188 -7.070312 4.171875 -7.21875 C 3.140625 -7.332031 2.546875 -6.953125 2.390625 -6.078125 C 2.296875 -5.316406 2.9375 -4.675781 4.3125 -4.15625 C 5.6875 -3.632812 6.304688 -2.828125 6.171875 -1.734375 C 5.859375 -0.078125 4.722656 0.648438 2.765625 0.453125 Z M 2.765625 0.453125 "/>
      </g>
    </g>
  </g>
  <g fill="#fff" fill-opacity="1">
    <g transform="translate(181.244447, 299.843729)">
      <g>
        <path d="M 8.578125 0.140625 C 7.960938 0.0976562 7.476562 0.0703125 7.125 0.0625 C 6.707031 0.0625 6.210938 0.0703125 5.640625 0.09375 L 5.640625 -0.3125 C 6.109375 -0.3125 6.390625 -0.40625 6.484375 -0.59375 C 6.578125 -0.78125 6.628906 -1.179688 6.640625 -1.796875 L 6.671875 -3.71875 L 2.375 -3.796875 L 2.34375 -1.984375 C 2.332031 -1.328125 2.363281 -0.890625 2.4375 -0.671875 C 2.519531 -0.460938 2.804688 -0.359375 3.296875 -0.359375 L 3.296875 0.046875 C 2.722656 0.00390625 2.226562 -0.015625 1.8125 -0.015625 C 1.445312 -0.0234375 0.960938 -0.0195312 0.359375 0 L 0.359375 -0.40625 C 0.804688 -0.394531 1.078125 -0.492188 1.171875 -0.703125 C 1.265625 -0.921875 1.316406 -1.316406 1.328125 -1.890625 L 1.390625 -6.21875 C 1.398438 -6.738281 1.363281 -7.128906 1.28125 -7.390625 C 1.195312 -7.660156 0.945312 -7.800781 0.53125 -7.8125 L 0.53125 -8.21875 C 1.0625 -8.164062 1.53125 -8.132812 1.9375 -8.125 C 2.382812 -8.113281 2.859375 -8.128906 3.359375 -8.171875 L 3.359375 -7.765625 C 2.910156 -7.765625 2.640625 -7.632812 2.546875 -7.375 C 2.460938 -7.125 2.414062 -6.726562 2.40625 -6.1875 L 2.390625 -4.484375 L 6.6875 -4.40625 L 6.703125 -6 C 6.710938 -6.675781 6.675781 -7.128906 6.59375 -7.359375 C 6.519531 -7.597656 6.257812 -7.71875 5.8125 -7.71875 L 5.8125 -8.125 C 6.300781 -8.070312 6.78125 -8.046875 7.25 -8.046875 C 7.644531 -8.035156 8.113281 -8.046875 8.65625 -8.078125 L 8.65625 -7.671875 C 8.238281 -7.679688 7.976562 -7.578125 7.875 -7.359375 C 7.78125 -7.140625 7.726562 -6.753906 7.71875 -6.203125 L 7.65625 -1.78125 C 7.644531 -1.207031 7.679688 -0.8125 7.765625 -0.59375 C 7.859375 -0.382812 8.128906 -0.273438 8.578125 -0.265625 Z M 8.578125 0.140625 "/>
      </g>
    </g>
  </g>
  <g fill="#fff" fill-opacity="1">
    <g transform="translate(194.251082, 299.74136)">
      <g/></g>
  </g>
  <g fill="#fff" fill-opacity="1">
    <g transform="translate(201.566274, 299.134169)">
      <g>
        <path d="M 8.453125 -1.4375 C 7.835938 -1.363281 7.359375 -1.300781 7.015625 -1.25 C 6.597656 -1.175781 6.113281 -1.078125 5.5625 -0.953125 L 5.5 -1.359375 C 5.957031 -1.429688 6.210938 -1.566406 6.265625 -1.765625 C 6.316406 -1.972656 6.296875 -2.378906 6.203125 -2.984375 L 5.875 -4.890625 L 1.640625 -4.171875 L 1.9375 -2.375 C 2.050781 -1.726562 2.164062 -1.3125 2.28125 -1.125 C 2.40625 -0.9375 2.707031 -0.878906 3.1875 -0.953125 L 3.25 -0.546875 C 2.675781 -0.484375 2.179688 -0.414062 1.765625 -0.34375 C 1.410156 -0.289062 0.941406 -0.195312 0.359375 -0.0625 L 0.296875 -0.46875 C 0.734375 -0.539062 0.976562 -0.6875 1.03125 -0.90625 C 1.082031 -1.132812 1.0625 -1.53125 0.96875 -2.09375 L 0.234375 -6.359375 C 0.148438 -6.878906 0.0390625 -7.257812 -0.09375 -7.5 C -0.226562 -7.75 -0.5 -7.835938 -0.90625 -7.765625 L -0.96875 -8.171875 C -0.445312 -8.222656 0.0078125 -8.28125 0.40625 -8.34375 C 0.851562 -8.425781 1.320312 -8.53125 1.8125 -8.65625 L 1.875 -8.25 C 1.4375 -8.175781 1.195312 -8.003906 1.15625 -7.734375 C 1.113281 -7.460938 1.140625 -7.054688 1.234375 -6.515625 L 1.515625 -4.84375 L 5.75 -5.5625 L 5.484375 -7.125 C 5.367188 -7.800781 5.25 -8.242188 5.125 -8.453125 C 5.007812 -8.660156 4.734375 -8.726562 4.296875 -8.65625 L 4.234375 -9.0625 C 4.710938 -9.101562 5.1875 -9.164062 5.65625 -9.25 C 6.039062 -9.3125 6.5 -9.410156 7.03125 -9.546875 L 7.09375 -9.140625 C 6.6875 -9.066406 6.453125 -8.910156 6.390625 -8.671875 C 6.335938 -8.441406 6.359375 -8.054688 6.453125 -7.515625 L 7.203125 -3.15625 C 7.296875 -2.59375 7.40625 -2.210938 7.53125 -2.015625 C 7.664062 -1.828125 7.953125 -1.769531 8.390625 -1.84375 Z M 8.453125 -1.4375 "/>
      </g>
    </g>
  </g>
  <g fill="#fff" fill-opacity="1">
    <g transform="translate(214.420982, 296.685739)">
      <g>
        <path d="M 7.8125 -2.265625 C 7.226562 -2.128906 6.769531 -2.015625 6.4375 -1.921875 C 6.03125 -1.804688 5.554688 -1.648438 5.015625 -1.453125 L 4.90625 -1.84375 C 5.21875 -1.9375 5.410156 -2.023438 5.484375 -2.109375 C 5.566406 -2.191406 5.582031 -2.335938 5.53125 -2.546875 C 5.488281 -2.660156 5.414062 -2.789062 5.3125 -2.9375 L 4.28125 -4.46875 L 1.515625 -3.65625 C 1.398438 -2.394531 1.378906 -1.632812 1.453125 -1.375 C 1.503906 -1.1875 1.585938 -1.070312 1.703125 -1.03125 C 1.828125 -0.988281 2.050781 -1.015625 2.375 -1.109375 L 2.484375 -0.71875 C 1.953125 -0.601562 1.492188 -0.488281 1.109375 -0.375 C 0.804688 -0.289062 0.398438 -0.15625 -0.109375 0.03125 L -0.21875 -0.359375 C 0.0195312 -0.441406 0.203125 -0.550781 0.328125 -0.6875 C 0.453125 -0.820312 0.539062 -1.019531 0.59375 -1.28125 L 1.296875 -8.828125 L 2.09375 -9.390625 L 6.5625 -3.15625 C 6.769531 -2.894531 6.9375 -2.722656 7.0625 -2.640625 C 7.1875 -2.566406 7.398438 -2.570312 7.703125 -2.65625 Z M 3.921875 -5 L 1.859375 -8.015625 L 1.5625 -4.3125 Z M 3.921875 -5 "/>
      </g>
    </g>
  </g>
  <g fill="#fff" fill-opacity="1">
    <g transform="translate(225.893436, 293.111564)">
      <g>
        <path d="M 0.859375 -4.171875 C 1.410156 -4.398438 1.867188 -4.675781 2.234375 -5 C 2.597656 -5.320312 2.832031 -5.648438 2.9375 -5.984375 C 3.039062 -6.328125 2.976562 -6.78125 2.75 -7.34375 C 2.257812 -8.425781 1.410156 -8.738281 0.203125 -8.28125 C -0.0546875 -8.175781 -0.332031 -8.023438 -0.625 -7.828125 Z M 3.1875 -1.296875 C 2.675781 -1.117188 2.164062 -0.925781 1.65625 -0.71875 C 1.25 -0.5625 0.804688 -0.367188 0.328125 -0.140625 L 0.171875 -0.515625 C 0.609375 -0.691406 0.832031 -0.890625 0.84375 -1.109375 C 0.863281 -1.335938 0.789062 -1.671875 0.625 -2.109375 L -1.359375 -6.890625 C -1.484375 -7.203125 -1.625 -7.398438 -1.78125 -7.484375 C -1.945312 -7.566406 -2.1875 -7.546875 -2.5 -7.421875 L -2.640625 -7.796875 C -2.160156 -7.941406 -1.691406 -8.109375 -1.234375 -8.296875 C -0.972656 -8.398438 -0.664062 -8.535156 -0.3125 -8.703125 C 0.03125 -8.867188 0.253906 -8.972656 0.359375 -9.015625 C 2.015625 -9.640625 3.140625 -9.269531 3.734375 -7.90625 C 4.085938 -6.988281 4.101562 -6.269531 3.78125 -5.75 C 3.5 -5.1875 2.910156 -4.722656 2.015625 -4.359375 C 1.628906 -4.203125 1.257812 -4.109375 0.90625 -4.078125 L 1.5625 -2.484375 C 1.726562 -2.054688 1.894531 -1.765625 2.0625 -1.609375 C 2.226562 -1.460938 2.550781 -1.484375 3.03125 -1.671875 Z M 3.1875 -1.296875 "/>
      </g>
    </g>
  </g>
  <g fill="#fff" fill-opacity="1">
    <g transform="translate(235.920561, 288.819068)">
      <g>
        <path d="M 0.4375 -4.25 C 0.96875 -4.53125 1.398438 -4.847656 1.734375 -5.203125 C 2.066406 -5.554688 2.265625 -5.90625 2.328125 -6.25 C 2.398438 -6.601562 2.296875 -7.046875 2.015625 -7.578125 C 1.410156 -8.609375 0.53125 -8.835938 -0.625 -8.265625 C -0.863281 -8.128906 -1.125 -7.953125 -1.40625 -7.734375 Z M 3.046875 -1.609375 C 2.554688 -1.378906 2.066406 -1.140625 1.578125 -0.890625 C 1.191406 -0.679688 0.769531 -0.441406 0.3125 -0.171875 L 0.125 -0.53125 C 0.539062 -0.75 0.742188 -0.96875 0.734375 -1.1875 C 0.734375 -1.414062 0.625 -1.738281 0.40625 -2.15625 L -2.03125 -6.734375 C -2.1875 -7.023438 -2.34375 -7.203125 -2.5 -7.265625 C -2.664062 -7.335938 -2.90625 -7.289062 -3.21875 -7.125 L -3.421875 -7.484375 C -2.941406 -7.691406 -2.488281 -7.910156 -2.0625 -8.140625 C -1.8125 -8.273438 -1.519531 -8.4375 -1.1875 -8.625 C -0.851562 -8.820312 -0.640625 -8.953125 -0.546875 -9.015625 C 1.046875 -9.804688 2.203125 -9.546875 2.921875 -8.234375 C 3.367188 -7.347656 3.460938 -6.628906 3.203125 -6.078125 C 2.960938 -5.503906 2.421875 -4.992188 1.578125 -4.546875 C 1.210938 -4.347656 0.847656 -4.21875 0.484375 -4.15625 L 1.296875 -2.625 C 1.503906 -2.21875 1.703125 -1.945312 1.890625 -1.8125 C 2.078125 -1.675781 2.398438 -1.726562 2.859375 -1.96875 Z M 3.046875 -1.609375 "/>
      </g>
    </g>
  </g>
  <g fill="#fff" fill-opacity="1">
    <g transform="translate(245.413064, 283.551643)">
      <g>
        <path d="M 2.859375 -1.84375 C 2.304688 -1.53125 1.875 -1.269531 1.5625 -1.0625 C 1.195312 -0.832031 0.773438 -0.539062 0.296875 -0.1875 L 0.078125 -0.53125 C 0.503906 -0.800781 0.703125 -1.03125 0.671875 -1.21875 C 0.648438 -1.414062 0.53125 -1.679688 0.3125 -2.015625 L -2.375 -6.203125 C -2.59375 -6.546875 -2.789062 -6.796875 -2.96875 -6.953125 C -3.15625 -7.117188 -3.453125 -7.070312 -3.859375 -6.8125 L -4.078125 -7.15625 C -3.628906 -7.382812 -3.207031 -7.625 -2.8125 -7.875 C -2.46875 -8.101562 -2.070312 -8.390625 -1.625 -8.734375 L -1.40625 -8.390625 C -1.8125 -8.117188 -1.984375 -7.867188 -1.921875 -7.640625 C -1.859375 -7.421875 -1.710938 -7.128906 -1.484375 -6.765625 L 1.21875 -2.5625 C 1.4375 -2.21875 1.625 -2 1.78125 -1.90625 C 1.9375 -1.820312 2.222656 -1.914062 2.640625 -2.1875 Z M 2.859375 -1.84375 "/>
      </g>
    </g>
  </g>
  <g fill="#fff" fill-opacity="1">
    <g transform="translate(251.996739, 279.257525)">
      <g>
        <path d="M 6.359375 -4.875 L 5.875 -4.484375 C 5.738281 -4.585938 5.347656 -4.703125 4.703125 -4.828125 L -2.625 -6.421875 C -0.351562 -3.566406 0.867188 -2.066406 1.046875 -1.921875 C 1.203125 -1.816406 1.34375 -1.769531 1.46875 -1.78125 C 1.59375 -1.800781 1.796875 -1.921875 2.078125 -2.140625 L 2.328125 -1.828125 C 1.765625 -1.421875 1.410156 -1.160156 1.265625 -1.046875 C 0.984375 -0.828125 0.65625 -0.550781 0.28125 -0.21875 L 0.03125 -0.53125 C 0.300781 -0.75 0.441406 -0.957031 0.453125 -1.15625 C 0.460938 -1.363281 0.238281 -1.800781 -0.21875 -2.46875 L -3.1875 -6.25 C -3.394531 -6.5 -3.585938 -6.644531 -3.765625 -6.6875 C -3.953125 -6.726562 -4.210938 -6.617188 -4.546875 -6.359375 L -4.796875 -6.6875 C -4.492188 -6.875 -4.222656 -7.066406 -3.984375 -7.265625 C -3.796875 -7.410156 -3.554688 -7.617188 -3.265625 -7.890625 C -3.054688 -7.734375 -2.738281 -7.609375 -2.3125 -7.515625 L 4.59375 -5.96875 C 2.445312 -8.695312 1.3125 -10.113281 1.1875 -10.21875 C 1.03125 -10.351562 0.882812 -10.410156 0.75 -10.390625 C 0.625 -10.378906 0.414062 -10.257812 0.125 -10.03125 L -0.125 -10.359375 C 0.414062 -10.742188 0.769531 -11 0.9375 -11.125 C 1.101562 -11.257812 1.4375 -11.546875 1.9375 -11.984375 L 2.1875 -11.65625 C 1.820312 -11.375 1.703125 -11.078125 1.828125 -10.765625 C 1.929688 -10.546875 2.28125 -10.054688 2.875 -9.296875 Z M 6.359375 -4.875 "/>
      </g>
    </g>
  </g>
  <g fill="#fff" fill-opacity="1">
    <g transform="translate(262.246739, 270.854835)">
      <g>
        <path d="M 4.46875 -4.390625 C 3.59375 -3.597656 2.863281 -2.914062 2.28125 -2.34375 C 1.875 -1.945312 1.195312 -1.25 0.25 -0.25 L -0.03125 -0.546875 C 0.300781 -0.878906 0.40625 -1.171875 0.28125 -1.421875 C 0.15625 -1.679688 -0.113281 -2.035156 -0.53125 -2.484375 L -3.890625 -5.890625 C -4.117188 -6.128906 -4.320312 -6.25 -4.5 -6.25 C -4.675781 -6.257812 -4.890625 -6.144531 -5.140625 -5.90625 L -5.421875 -6.203125 C -4.441406 -7.078125 -3.6875 -7.78125 -3.15625 -8.3125 C -2.5625 -8.882812 -1.976562 -9.5 -1.40625 -10.15625 C -1.007812 -9.75 -0.539062 -9.410156 0 -9.140625 L -0.234375 -8.8125 C -0.660156 -9.050781 -1.019531 -9.125 -1.3125 -9.03125 C -1.601562 -8.9375 -2.019531 -8.625 -2.5625 -8.09375 L -3.609375 -7.046875 L -1.5 -4.90625 L -0.71875 -5.671875 C -0.363281 -6.015625 -0.148438 -6.285156 -0.078125 -6.484375 C -0.00390625 -6.691406 -0.0625 -6.898438 -0.25 -7.109375 L 0.015625 -7.359375 C 0.304688 -6.992188 0.550781 -6.707031 0.75 -6.5 C 0.90625 -6.34375 1.160156 -6.109375 1.515625 -5.796875 L 1.25 -5.515625 C 0.96875 -5.804688 0.71875 -5.910156 0.5 -5.828125 C 0.28125 -5.742188 -0.0507812 -5.484375 -0.5 -5.046875 L -1.078125 -4.484375 L 1.234375 -2.125 C 1.546875 -2.363281 1.910156 -2.6875 2.328125 -3.09375 C 2.921875 -3.675781 3.28125 -4.132812 3.40625 -4.46875 C 3.539062 -4.8125 3.472656 -5.269531 3.203125 -5.84375 L 3.578125 -6.015625 C 3.859375 -5.359375 4.15625 -4.816406 4.46875 -4.390625 Z M 4.46875 -4.390625 "/>
      </g>
    </g>
  </g>
  <g fill="#fff" fill-opacity="1">
    <g transform="translate(270.101562, 262.829345)">
      <g>
        <path d="M 1.875 -2.09375 C 1.40625 -1.53125 0.863281 -1.070312 0.25 -0.71875 C 0.195312 -0.78125 0.109375 -0.863281 -0.015625 -0.96875 C -0.429688 -1.320312 -0.863281 -1.515625 -1.3125 -1.546875 L -1.234375 -2.015625 C -0.0664062 -1.640625 0.863281 -1.867188 1.5625 -2.703125 C 2.28125 -3.628906 2.289062 -4.445312 1.59375 -5.15625 C 0.988281 -5.65625 0.09375 -5.476562 -1.09375 -4.625 C -2.289062 -3.769531 -3.304688 -3.6875 -4.140625 -4.375 C -5.234375 -5.4375 -5.265625 -6.617188 -4.234375 -7.921875 C -3.898438 -8.316406 -3.40625 -8.738281 -2.75 -9.1875 C -2.300781 -8.8125 -1.84375 -8.609375 -1.375 -8.578125 L -1.46875 -8.078125 C -2.320312 -8.460938 -3.101562 -8.25 -3.8125 -7.4375 C -4.457031 -6.625 -4.457031 -5.910156 -3.8125 -5.296875 C -3.226562 -4.816406 -2.34375 -5.007812 -1.15625 -5.875 C 0.03125 -6.75 1.050781 -6.832031 1.90625 -6.125 C 3.113281 -4.96875 3.101562 -3.625 1.875 -2.09375 Z M 1.875 -2.09375 "/>
      </g>
    </g>
  </g>
  <g fill="#fff" fill-opacity="1">
    <g transform="translate(276.67849, 254.650047)">
      <g>
        <path d="M 1.671875 -2.25 C 1.265625 -1.65625 0.769531 -1.15625 0.1875 -0.75 C 0.125 -0.800781 0.03125 -0.875 -0.09375 -0.96875 C -0.550781 -1.269531 -1.007812 -1.414062 -1.46875 -1.40625 L -1.421875 -1.890625 C -0.222656 -1.617188 0.679688 -1.9375 1.296875 -2.84375 C 1.929688 -3.832031 1.863281 -4.644531 1.09375 -5.28125 C 0.445312 -5.71875 -0.425781 -5.453125 -1.53125 -4.484375 C -2.632812 -3.523438 -3.632812 -3.351562 -4.53125 -3.96875 C -5.71875 -4.914062 -5.863281 -6.085938 -4.96875 -7.484375 C -4.675781 -7.910156 -4.226562 -8.378906 -3.625 -8.890625 C -3.132812 -8.554688 -2.648438 -8.394531 -2.171875 -8.40625 L -2.234375 -7.890625 C -3.128906 -8.191406 -3.882812 -7.910156 -4.5 -7.046875 C -5.070312 -6.160156 -5.003906 -5.453125 -4.296875 -4.921875 C -3.671875 -4.484375 -2.804688 -4.753906 -1.703125 -5.734375 C -0.609375 -6.722656 0.394531 -6.90625 1.3125 -6.28125 C 2.625 -5.238281 2.742188 -3.894531 1.671875 -2.25 Z M 1.671875 -2.25 "/>
      </g>
    </g>
  </g>
  <g fill="#fff" fill-opacity="1">
    <g transform="translate(156.541986, 248.064065)">
      <g>
        <path d="M 2.6875 -4.703125 L 2.6875 -0.96875 L 7.78125 -0.96875 L 7.78125 0 L 1.515625 0 L 1.515625 -10 L 7.671875 -10 L 7.671875 -9.03125 L 2.6875 -9.03125 L 2.6875 -5.6875 L 7.078125 -5.6875 L 7.078125 -4.703125 Z M 2.6875 -4.703125 "/>
      </g>
    </g>
  </g>
  <g fill="#fff" fill-opacity="1">
    <g transform="translate(164.979657, 248.064065)">
      <g>
        <path d="M 3.4375 0.140625 C 2.96875 0.140625 2.53125 0.078125 2.125 -0.046875 C 1.71875 -0.171875 1.375 -0.34375 1.09375 -0.5625 C 0.820312 -0.78125 0.628906 -1.023438 0.515625 -1.296875 L 1.171875 -1.984375 L 1.3125 -1.984375 C 1.5625 -1.609375 1.859375 -1.328125 2.203125 -1.140625 C 2.546875 -0.953125 2.957031 -0.859375 3.4375 -0.859375 C 3.988281 -0.859375 4.410156 -0.960938 4.703125 -1.171875 C 4.992188 -1.390625 5.140625 -1.691406 5.140625 -2.078125 C 5.140625 -2.378906 5.050781 -2.625 4.875 -2.8125 C 4.695312 -3.007812 4.414062 -3.15625 4.03125 -3.25 L 2.75 -3.5625 C 2.070312 -3.726562 1.578125 -3.988281 1.265625 -4.34375 C 0.953125 -4.695312 0.796875 -5.140625 0.796875 -5.671875 C 0.796875 -6.078125 0.898438 -6.429688 1.109375 -6.734375 C 1.316406 -7.035156 1.617188 -7.269531 2.015625 -7.4375 C 2.410156 -7.601562 2.878906 -7.6875 3.421875 -7.6875 C 4.117188 -7.6875 4.664062 -7.585938 5.0625 -7.390625 C 5.457031 -7.203125 5.769531 -6.929688 6 -6.578125 L 5.359375 -5.96875 L 5.234375 -5.96875 C 4.992188 -6.25 4.726562 -6.445312 4.4375 -6.5625 C 4.15625 -6.6875 3.816406 -6.75 3.421875 -6.75 C 2.929688 -6.75 2.550781 -6.660156 2.28125 -6.484375 C 2.019531 -6.304688 1.890625 -6.050781 1.890625 -5.71875 C 1.890625 -5.40625 1.984375 -5.15625 2.171875 -4.96875 C 2.359375 -4.789062 2.679688 -4.644531 3.140625 -4.53125 L 4.390625 -4.21875 C 5.046875 -4.070312 5.519531 -3.816406 5.8125 -3.453125 C 6.101562 -3.085938 6.25 -2.632812 6.25 -2.09375 C 6.25 -1.65625 6.144531 -1.265625 5.9375 -0.921875 C 5.726562 -0.585938 5.410156 -0.328125 4.984375 -0.140625 C 4.566406 0.046875 4.050781 0.140625 3.4375 0.140625 Z M 3.4375 0.140625 "/>
      </g>
    </g>
  </g>
  <g fill="#fff" fill-opacity="1">
    <g transform="translate(171.948422, 248.064065)">
      <g>
        <path d="M 5.09375 -1.203125 L 5.453125 -0.390625 C 5.273438 -0.210938 5.039062 -0.0820312 4.75 0 C 4.46875 0.09375 4.15625 0.140625 3.8125 0.140625 C 2.375 0.140625 1.65625 -0.585938 1.65625 -2.046875 L 1.65625 -6.625 L 0.34375 -6.625 L 0.34375 -7.546875 L 1.65625 -7.546875 L 1.65625 -9.140625 L 2.765625 -9.328125 L 2.765625 -7.546875 L 5.203125 -7.546875 L 5.203125 -6.625 L 2.765625 -6.625 L 2.765625 -2.15625 C 2.765625 -1.289062 3.140625 -0.859375 3.890625 -0.859375 C 4.304688 -0.859375 4.660156 -0.972656 4.953125 -1.203125 Z M 5.09375 -1.203125 "/>
      </g>
    </g>
  </g>
  <g fill="#fff" fill-opacity="1">
    <g transform="translate(177.687404, 248.064065)">
      <g>
        <path d="M 1.84375 0.0625 C 1.582031 0.0625 1.375 -0.0078125 1.21875 -0.15625 C 1.070312 -0.300781 1 -0.492188 1 -0.734375 C 1 -0.972656 1.070312 -1.164062 1.21875 -1.3125 C 1.375 -1.46875 1.582031 -1.546875 1.84375 -1.546875 C 2.101562 -1.546875 2.304688 -1.472656 2.453125 -1.328125 C 2.609375 -1.179688 2.6875 -0.988281 2.6875 -0.75 C 2.6875 -0.507812 2.609375 -0.3125 2.453125 -0.15625 C 2.304688 -0.0078125 2.101562 0.0625 1.84375 0.0625 Z M 1.84375 0.0625 "/>
      </g>
    </g>
  </g>
  <g fill="#fff" fill-opacity="1">
    <g transform="translate(181.369918, 248.064065)">
      <g/></g>
  </g>
  <g fill="#fff" fill-opacity="1">
    <g transform="translate(184.799644, 248.064065)">
      <g>
        <path d="M 0.609375 -0.453125 C 0.609375 -1.003906 0.664062 -1.445312 0.78125 -1.78125 C 0.90625 -2.125 1.113281 -2.441406 1.40625 -2.734375 C 1.695312 -3.023438 2.160156 -3.40625 2.796875 -3.875 L 3.890625 -4.671875 C 4.296875 -4.960938 4.625 -5.234375 4.875 -5.484375 C 5.132812 -5.734375 5.335938 -6.003906 5.484375 -6.296875 C 5.640625 -6.597656 5.71875 -6.929688 5.71875 -7.296875 C 5.71875 -7.890625 5.554688 -8.332031 5.234375 -8.625 C 4.921875 -8.925781 4.429688 -9.078125 3.765625 -9.078125 C 3.234375 -9.078125 2.765625 -8.953125 2.359375 -8.703125 C 1.953125 -8.460938 1.625 -8.117188 1.375 -7.671875 L 1.21875 -7.640625 L 0.515625 -8.375 C 0.847656 -8.925781 1.289062 -9.359375 1.84375 -9.671875 C 2.394531 -9.984375 3.035156 -10.140625 3.765625 -10.140625 C 4.472656 -10.140625 5.0625 -10.015625 5.53125 -9.765625 C 6 -9.523438 6.34375 -9.191406 6.5625 -8.765625 C 6.789062 -8.347656 6.90625 -7.859375 6.90625 -7.296875 C 6.90625 -6.847656 6.8125 -6.429688 6.625 -6.046875 C 6.4375 -5.660156 6.171875 -5.296875 5.828125 -4.953125 C 5.492188 -4.609375 5.066406 -4.25 4.546875 -3.875 L 3.4375 -3.0625 C 3.019531 -2.75 2.695312 -2.484375 2.46875 -2.265625 C 2.25 -2.054688 2.085938 -1.847656 1.984375 -1.640625 C 1.890625 -1.441406 1.84375 -1.21875 1.84375 -0.96875 L 6.90625 -0.96875 L 6.90625 0 L 0.609375 0 Z M 0.609375 -0.453125 "/>
      </g>
    </g>
  </g>
  <g fill="#fff" fill-opacity="1">
    <g transform="translate(192.478949, 248.064065)">
      <g>
        <path d="M 4.921875 0.140625 C 4.179688 0.140625 3.519531 -0.0351562 2.9375 -0.390625 C 2.351562 -0.742188 1.890625 -1.300781 1.546875 -2.0625 C 1.203125 -2.832031 1.03125 -3.8125 1.03125 -5 C 1.03125 -6.1875 1.203125 -7.160156 1.546875 -7.921875 C 1.890625 -8.691406 2.351562 -9.253906 2.9375 -9.609375 C 3.519531 -9.960938 4.179688 -10.140625 4.921875 -10.140625 C 5.648438 -10.140625 6.304688 -9.960938 6.890625 -9.609375 C 7.472656 -9.253906 7.9375 -8.691406 8.28125 -7.921875 C 8.625 -7.160156 8.796875 -6.1875 8.796875 -5 C 8.796875 -3.8125 8.625 -2.832031 8.28125 -2.0625 C 7.9375 -1.300781 7.472656 -0.742188 6.890625 -0.390625 C 6.304688 -0.0351562 5.648438 0.140625 4.921875 0.140625 Z M 4.921875 -0.9375 C 5.785156 -0.9375 6.441406 -1.25 6.890625 -1.875 C 7.335938 -2.507812 7.5625 -3.550781 7.5625 -5 C 7.5625 -6.445312 7.335938 -7.484375 6.890625 -8.109375 C 6.441406 -8.734375 5.785156 -9.046875 4.921875 -9.046875 C 4.335938 -9.046875 3.847656 -8.914062 3.453125 -8.65625 C 3.066406 -8.394531 2.769531 -7.960938 2.5625 -7.359375 C 2.351562 -6.765625 2.25 -5.976562 2.25 -5 C 2.25 -4.019531 2.351562 -3.226562 2.5625 -2.625 C 2.769531 -2.03125 3.066406 -1.597656 3.453125 -1.328125 C 3.847656 -1.066406 4.335938 -0.9375 4.921875 -0.9375 Z M 4.921875 -0.9375 "/>
      </g>
    </g>
  </g>
  <g fill="#fff" fill-opacity="1">
    <g transform="translate(202.303541, 248.064065)">
      <g>
        <path d="M 0.609375 -0.453125 C 0.609375 -1.003906 0.664062 -1.445312 0.78125 -1.78125 C 0.90625 -2.125 1.113281 -2.441406 1.40625 -2.734375 C 1.695312 -3.023438 2.160156 -3.40625 2.796875 -3.875 L 3.890625 -4.671875 C 4.296875 -4.960938 4.625 -5.234375 4.875 -5.484375 C 5.132812 -5.734375 5.335938 -6.003906 5.484375 -6.296875 C 5.640625 -6.597656 5.71875 -6.929688 5.71875 -7.296875 C 5.71875 -7.890625 5.554688 -8.332031 5.234375 -8.625 C 4.921875 -8.925781 4.429688 -9.078125 3.765625 -9.078125 C 3.234375 -9.078125 2.765625 -8.953125 2.359375 -8.703125 C 1.953125 -8.460938 1.625 -8.117188 1.375 -7.671875 L 1.21875 -7.640625 L 0.515625 -8.375 C 0.847656 -8.925781 1.289062 -9.359375 1.84375 -9.671875 C 2.394531 -9.984375 3.035156 -10.140625 3.765625 -10.140625 C 4.472656 -10.140625 5.0625 -10.015625 5.53125 -9.765625 C 6 -9.523438 6.34375 -9.191406 6.5625 -8.765625 C 6.789062 -8.347656 6.90625 -7.859375 6.90625 -7.296875 C 6.90625 -6.847656 6.8125 -6.429688 6.625 -6.046875 C 6.4375 -5.660156 6.171875 -5.296875 5.828125 -4.953125 C 5.492188 -4.609375 5.066406 -4.25 4.546875 -3.875 L 3.4375 -3.0625 C 3.019531 -2.75 2.695312 -2.484375 2.46875 -2.265625 C 2.25 -2.054688 2.085938 -1.847656 1.984375 -1.640625 C 1.890625 -1.441406 1.84375 -1.21875 1.84375 -0.96875 L 6.90625 -0.96875 L 6.90625 0 L 0.609375 0 Z M 0.609375 -0.453125 "/>
      </g>
    </g>
  </g>
  <g fill="#fff" fill-opacity="1">
    <g transform="translate(209.982847, 248.064065)">
      <g>
        <path d="M 6.25 0 L 5.140625 0 L 5.140625 -2.390625 L 0.453125 -2.390625 L 0.453125 -3.328125 L 4.875 -10 L 6.25 -10 L 6.25 -3.328125 L 7.984375 -3.328125 L 7.984375 -2.390625 L 6.25 -2.390625 Z M 1.84375 -3.46875 L 1.90625 -3.328125 L 5.140625 -3.328125 L 5.140625 -8.375 L 4.984375 -8.390625 Z M 1.84375 -3.46875 "/>
      </g>
    </g>
  </g>
  <g fill="#fff" fill-opacity="1">
    <g transform="translate(170.994017, 225.736609)">
      <g>
        <path d="M 13.15625 -4.421875 C 11.800781 -7.859375 9.734375 -9.578125 6.953125 -9.578125 L 6.515625 -9.578125 L 6.515625 -9.71875 L 9.78125 -11.171875 C 11.820312 -11.171875 13.335938 -10.296875 14.328125 -8.546875 L 14.453125 -8.546875 C 15.140625 -10.753906 15.910156 -12.640625 16.765625 -14.203125 C 20.210938 -20.421875 23.453125 -23.816406 26.484375 -24.390625 L 26.484375 -24.265625 C 25.460938 -23.410156 24.671875 -22.59375 24.109375 -21.8125 C 19.679688 -15.925781 17.054688 -10.84375 16.234375 -6.5625 C 16.148438 -5.757812 16.003906 -5.359375 15.796875 -5.359375 C 14.210938 -4.734375 13.332031 -4.421875 13.15625 -4.421875 Z M 30.78125 0 L 2.21875 0 L 2.09375 -0.125 L 2.09375 -28.65625 L 2.21875 -28.8125 L 30.78125 -28.8125 L 30.90625 -28.65625 L 30.90625 -0.125 Z M 28.5 -2.40625 L 28.5 -26.390625 L 4.5 -26.390625 L 4.5 -2.40625 Z M 28.5 -2.40625 "/>
      </g>
    </g>
  </g>
  <g fill="#fff" fill-opacity="1">
    <g transform="translate(203.976878, 225.736609)">
      <g/></g>
  </g>
</svg>